<svg width="77" height="82" viewBox="0 0 77 82" fill="none" xmlns="http://www.w3.org/2000/svg">
<g clip-path="url(#clip0_282_351)">
<path d="M3.77001 39.6901C17.31 47.5801 32 47.6301 46.87 45.6901C53.57 44.8201 59.7301 42.1907 64.0001 36.5007H64.5001H65.0001C61.5001 40.3907 62.4 44.7301 64.26 48.7501L65.88 48.8101L66.0001 36.5007L65.5001 37.0007C68.7101 46.3307 67.35 50.9601 59.09 55.6901C48.92 61.5501 37.8 61.6901 26.58 60.4401C21.82 59.9201 17.12 58.8501 11.93 57.9501C12.5 62.9501 10.13 68.3301 15.1 73.1001V62.4801C34.45 68.0001 53.9401 71.1707 73.0001 60.0007C68.6001 63.2907 70.88 66.9401 71.14 72.3401C74.79 67.5501 76.1301 63.7207 74.0001 59.5007L74.26 54.8701C74.47 59.2201 76.5 63.8001 75.48 67.8701C74.9534 69.5531 74.0871 71.1101 72.9347 72.4449C71.7823 73.7796 70.3682 74.8637 68.78 75.6301C51.83 82.4401 34.53 83.1101 17.3 76.4301C11.54 74.2001 10.14 71.6401 10.73 64.6001C11.12 59.9401 10.96 56.5101 5.52001 54.6001C3.33001 53.8401 1.28001 50.3801 0.670012 47.8001C-0.0722924 44.8642 -0.222035 41.8098 0.229533 38.8154C0.681102 35.8209 2.00012 31.0007 3.30001 30.3601L2.00012 38.5007C1.91904 44.6861 2.00001 49.4001 6.00001 51.4201C5.00001 47.4101 8.39001 42.9001 3.77001 39.6901ZM49.55 57.1701C49 53.8001 48.55 51.0001 48 47.7201L42.46 48.4801L43.75 58.0701L49.55 57.1701ZM26.6 58.0501V48.8801L20.79 48.3101V57.4401L26.6 58.0501ZM16.35 64.1201C18.78 68.8201 14.9 75.0201 22.64 75.6001L23.16 66.7101L16.35 64.1201ZM34.63 58.2801C34.25 55.0801 33.91 52.2001 33.58 49.2801H29.12C28.39 58.3901 28.53 58.6301 34.63 58.2801ZM36.49 77.7001L37.08 69.0001H32.17L31.17 77.6901L36.49 77.7001ZM49.81 47.4601L52.12 56.2401C56.69 54.6201 57.05 52.6801 54.32 45.9201L49.81 47.4601ZM38.58 78.2001L43.76 77.9401V69.3201H39.31C39.07 72.2401 38.86 74.8401 38.58 78.2001ZM36.86 58.5001C41.73 58.1401 41.73 58.1401 40.38 49.1101H35.85L36.86 58.5001ZM18.34 56.4201V47.6301L14.16 46.4801C12.59 55.2901 12.7 55.5801 18.34 56.4201ZM28.75 77.2801L29.94 68.2801L24.71 67.6401C26.21 70.9101 22.19 75.6301 28.75 77.2801ZM56.63 44.9201C57.3 47.9201 57.89 50.5301 58.57 53.5601C63.97 50.5601 59.88 46.5601 60.81 42.4901L56.63 44.9201ZM59.21 76.2601C65.42 74.4901 62.4 70.2601 62.79 66.4301L57.87 68.1301C58.32 70.8301 58.69 73.0801 59.21 76.2601ZM64.78 74.5701C70.53 71.6401 67.87 67.7301 68.55 64.2801C61.49 66.0001 66.46 70.5501 64.78 74.5701ZM56.69 76.5001C56.47 73.5001 56.3 71.0901 56.05 67.6901C54.32 68.7801 52.64 69.2801 52.53 70.0201C52.3043 72.4735 52.2608 74.9403 52.4 77.4001L56.69 76.5001ZM7.83001 44.1501C8.62001 47.8501 6.18001 51.8401 10.33 54.0701C9.18001 51.0001 14.81 46.1901 7.83001 44.1501ZM46.58 77.6301L48.39 78.2801L50.79 69.0001L45.85 69.9301L46.58 77.6301Z" fill="white"/>
<path d="M64.82 36.81L64.41 36.56H63.93C51.39 38.78 38.83 39.56 26.28 36.77C23.1765 36.1409 20.1564 35.1543 17.28 33.83C13.43 32 10.7 29 10.59 24.25C10.52 21.25 10.1 18.25 10.13 15.31C10.13 8.44004 11.5 6.73004 18.58 4.19004C14.58 6.85004 10.75 9.71004 11.91 15.26C12.17 16.5 13.02 18.26 14.01 18.62C27.54 23.25 41.53 25.46 55.69 23.53C61.19 22.79 66.38 19.46 71.57 17.02C74.57 15.59 74.4 12.81 72.34 10.87C69.86 8.54004 67.05 6.00004 63.92 5.05004C58.0155 3.41865 51.9733 2.33407 45.87 1.81004C40.79 1.30004 35.62 1.70004 30.49 1.47004C41.49 -0.259958 52.41 -1.12996 63.2 2.73004C74.62 6.81004 79.2 15.4 75.4 26.78C74.59 29.21 72 31.08 70.08 33.07C68.74 34.47 67.15 35.63 65.67 36.9L65.5001 36.9993L64.82 36.81ZM28.82 35.06V24.77L22 23.14C22.11 25.22 22.22 26.69 22.26 28.14C22.3 29.59 22.26 31.4 22.26 33.43L28.82 35.06ZM36.59 26L31 25C31 35.59 31 35.59 36.59 35.5V26ZM43.85 26.43L38.55 26.03L39 35.92L44.42 35.68L43.85 26.43ZM52.67 35.63L51.85 26.54L46.39 26.79L47 35.83L52.67 35.63ZM16.43 21.25C17.99 24.85 13.84 30.25 19.98 32.33C18.25 28.75 22.6 23.51 16.43 21.25ZM61.83 24.72C58.94 27.48 60.66 30.99 61.3 34.33C65.05 31.71 62.28 28 61.83 24.72ZM57.61 25C52.54 27.77 55.78 31.72 54.82 34.9L58.5 34.6C58.24 31.72 58 29.1 57.61 25Z" fill="white"/>
</g>
<defs>
<clipPath id="clip0_282_351">
<rect width="76.71" height="81.03" fill="white"/>
</clipPath>
</defs>
</svg>
