<svg width="91" height="92" viewBox="0 0 91 92" fill="none" xmlns="http://www.w3.org/2000/svg">
<path fill-rule="evenodd" clip-rule="evenodd" d="M37.9234 3.15331C33.6857 8.82371 39.9432 16.8769 45.2915 12.6341C47.9828 10.4977 48.6439 4.79335 46.5006 2.19819C44.594 -0.110437 39.9795 0.403569 37.9234 3.15331ZM45.4607 6.45602C45.9059 10.2287 43.2707 12.5525 40.5472 10.7867C38.4444 9.42443 37.6868 5.74848 39.145 3.98402C40.7164 2.08006 45.1493 3.81561 45.4607 6.45602ZM55.9622 11.1449C53.52 15.4166 50.044 20.9387 48.2381 23.4144L44.9531 27.9161L42.457 23.5539C41.0849 21.1548 39.6121 18.5634 39.1834 17.7956C38.6354 16.8128 38.132 16.9133 37.4802 18.1361C36.7537 19.501 36.1995 19.1654 34.8855 16.5652C33.9669 14.7455 32.5045 11.8437 31.6348 10.1156C30.765 8.38763 29.3981 6.9738 28.5968 6.9738C27.7956 6.9738 24.2895 13.3367 20.8043 21.1121C17.32 28.8888 11.5648 39.424 8.01418 44.5239C-0.530873 56.8009 -0.422931 56.6011 0.307752 58.9072C0.851613 60.6227 2.5984 60.8326 12.4336 60.3625C18.7523 60.0609 24.8479 59.2139 25.9792 58.4812C27.4458 57.5311 29.2974 57.5701 32.4412 58.6169C36.7278 60.0433 44.6002 60.3123 47.7461 59.1385C48.6024 58.8193 49.9195 59.0266 50.673 59.5997C51.7192 60.3952 51.2885 61.5577 48.8567 64.5022C40.4756 74.6504 49.3206 81.5876 77.5163 86.9752C88.8377 89.1393 92.8534 88.6856 90.2254 85.54C89.3608 84.5045 82.82 82.7199 74.5219 81.2558C58.0307 78.3439 52.5921 76.5933 50.2319 73.4351C48.0606 70.5308 49.0632 67.2922 52.125 67.3161C55.4816 67.3437 57.3021 69.0617 56.9077 71.829C56.6493 73.6387 57.2834 74.3086 59.5492 74.6215C61.188 74.849 63.0334 74.4242 63.6489 73.6789C64.4491 72.71 64.4128 72.3242 63.5222 72.3242C62.8372 72.3242 62.2768 71.1931 62.2768 69.8107C62.2768 68.4283 62.8881 67.2972 63.6354 67.2972C64.3827 67.2972 65.8939 66.5004 66.9951 65.5252C68.9235 63.8173 68.9287 63.664 67.13 61.2573C65.7319 59.3873 65.6001 58.6245 66.6027 58.2198C67.6282 57.8063 67.5119 56.8864 66.1035 54.2837C65.0936 52.4162 64.5591 50.3149 64.9172 49.6137C65.2753 48.9111 64.283 46.2959 62.7106 43.8012L59.8533 39.2657L57.93 42.1424C56.0379 44.9713 55.9705 44.9801 53.8179 42.6476C52.6139 41.3443 50.4924 38.112 49.1027 35.464C46.7352 30.9511 46.6802 30.4622 48.2236 27.6094C49.8977 24.5166 51.8977 23.5439 51.8977 25.8249C51.8977 28.2529 54.9762 27.0426 58.5995 23.1907L62.2591 19.2999L65.5119 22.6139C68.4689 25.6263 68.9256 25.752 70.5322 23.9913C72.771 21.5381 73.5982 21.5608 75.948 24.1346C77.7778 26.1403 77.7477 26.3715 75.1125 30.5552C73.2899 33.447 72.7637 35.1825 73.5349 35.7594C74.3144 36.3438 73.8525 38.1183 72.1161 41.2124C69.184 46.4366 68.8052 49.0569 71.1384 47.9736C72.142 47.5074 71.7144 48.8521 69.9863 51.5955C67.02 56.3045 66.9702 56.214 73.6937 58.2173C76.8167 59.146 77.3263 59.8159 77.3263 62.9841C77.3263 66.048 77.7965 66.7342 80.1142 67.0584C82.6549 67.4141 82.931 67.0308 83.2279 62.7327C83.5133 58.6094 83.971 57.8868 86.8761 56.9819C91.3474 55.5882 91.8798 54.0751 89.2986 50.1025C87.6172 47.5136 87.4262 46.5246 88.4527 45.7366C89.4906 44.9424 89.2882 43.6127 87.532 39.6703C86.2949 36.8942 85.7116 34.622 86.2347 34.622C86.7578 34.622 87.1864 34.0766 87.1864 33.4093C87.1864 31.7215 80.9715 23.3114 79.7239 23.3114C77.7156 23.3114 69.9956 15.6905 66.4284 10.1885C64.4304 7.10575 62.257 4.31202 61.599 3.98025C60.941 3.64721 58.4043 6.872 55.9622 11.1449ZM68.0734 17.1194C70.2904 19.8302 70.4814 20.5893 69.2598 21.8159C68.1098 22.9721 67.294 22.624 65.378 20.1545C62.256 16.1304 61.2503 16.2171 57.9311 20.7979C56.4282 22.8715 54.6897 24.5681 54.0669 24.5681C51.9766 24.5681 52.9086 21.0028 56.8278 14.0065L60.7199 7.058L63.0759 10.4713C64.3712 12.3489 66.6204 15.3412 68.0734 17.1194ZM32.1402 16.7738C33.8953 20.7137 35.5549 22.8175 37.1201 23.0864C39.0994 23.427 45.1991 31.8409 44.2775 32.9581C44.1114 33.1579 42.4466 32.6251 40.5763 31.773C37.3941 30.3227 37.0287 30.4459 34.8969 33.6795C32.0074 38.063 31.286 38.0177 29.9461 33.3653C28.7089 29.0685 27.0254 28.6839 22.769 31.7278C21.1291 32.9016 19.4913 33.5035 19.1301 33.0662C18.7689 32.6288 20.7036 27.1482 23.4291 20.8871C26.1557 14.6273 28.6383 9.81025 28.9476 10.1835C29.2559 10.558 30.6934 13.5227 32.1402 16.7738ZM81.7094 29.5059C82.6466 31.3206 82.6591 32.0507 81.7592 32.4139C81.0109 32.7156 81.6108 34.568 83.3534 37.3353C86.5595 42.4239 86.7619 43.4192 84.5917 43.4192C82.4609 43.4192 82.6124 44.172 85.7406 49.1386L88.4454 53.4329L85.6732 54.7097C82.629 56.111 72.3527 56.4566 71.3086 55.1936C70.9484 54.7575 72.0382 52.3659 73.73 49.8801C77.372 44.5314 77.6107 42.9404 74.6019 44.0978C72.2116 45.0165 72.5022 43.6555 75.6366 39.2443C76.5324 37.9851 77.3347 35.7229 77.4218 34.2174C77.6138 30.8656 78.8656 27.0816 79.782 27.0816C80.1546 27.0816 81.0223 28.1725 81.7094 29.5059ZM28.026 34.578C28.026 36.7095 30.7224 39.649 32.6779 39.649C33.0276 39.649 34.434 38.1874 35.8009 36.4003C38.1673 33.3087 38.4787 33.2321 42.239 34.8219C44.4113 35.7418 46.5785 37.2373 47.0538 38.1472C47.5302 39.0558 49.33 41.7452 51.0539 44.123C52.7779 46.5007 53.849 48.4461 53.4349 48.4461C53.0207 48.4461 53.165 49.1537 53.7566 50.0171C54.5226 51.1368 54.2974 52.3848 52.974 54.3616C51.9527 55.8885 50.9429 56.9492 50.7291 56.7193C50.5152 56.4905 47.7835 56.7117 44.6573 57.2119C40.9894 57.8 37.1772 57.5487 33.9119 56.5056C30.4287 55.3934 28.0281 55.269 26.2065 56.1072C23.5402 57.3351 2.07841 58.8092 2.07841 57.7649C2.07841 56.1638 17.0886 36.0359 17.5836 36.9734C17.9044 37.5791 19.8006 36.7648 21.7986 35.1637C26.3072 31.5518 28.026 31.3897 28.026 34.578ZM60.7199 45.9327C61.0728 46.6239 60.8351 47.1894 60.1916 47.1894C59.5481 47.1894 60.0536 48.9451 61.3157 51.0891C62.912 53.8049 63.2482 55.2589 62.4241 55.876C61.5658 56.5182 61.6602 57.4368 62.7625 59.2026C63.6011 60.5448 64.3017 62.3231 64.3194 63.1563C64.3598 65.0238 58.0566 66.5821 55.0851 65.4398L52.9014 64.6015L55.1412 60.7923C56.835 57.9119 57.0654 56.7469 56.0867 56.0142C55.0831 55.2627 55.1754 54.339 56.4988 51.8921C57.4381 50.1578 58.1324 48.2488 58.0421 47.6494C57.5906 44.637 59.4495 43.4443 60.7199 45.9327ZM79.6025 63.1889C79.3388 64.4117 79.1063 63.7155 79.0856 61.6419C79.0648 59.5683 79.2797 58.5679 79.5641 59.4187C79.8484 60.2695 79.8661 61.9661 79.6025 63.1889ZM69.5421 62.2703C69.5421 62.9615 70.0091 63.527 70.58 63.527C71.1508 63.527 71.6179 62.9615 71.6179 62.2703C71.6179 61.5791 71.1508 61.0135 70.58 61.0135C70.0091 61.0135 69.5421 61.5791 69.5421 62.2703ZM85.6296 66.0405C85.9825 66.7317 86.4765 67.2972 86.7287 67.2972C86.9809 67.2972 87.1864 66.7317 87.1864 66.0405C87.1864 65.3493 86.6913 64.7837 86.0873 64.7837C85.4832 64.7837 85.2767 65.3493 85.6296 66.0405ZM11.0739 70.6489C9.77135 72.2261 10.3806 73.8511 11.9925 73.1008C12.8788 72.6899 14.7201 73.2378 16.0849 74.3199C18.7793 76.4588 22.9631 76.313 23.5744 74.0597C23.8142 73.18 22.9973 72.8759 21.3907 73.2479C19.9667 73.5771 17.7663 72.945 16.4482 71.8265C13.9084 69.6724 12.1907 69.2967 11.0739 70.6489ZM67.4663 71.0674C67.4663 71.7586 67.9333 72.3242 68.5042 72.3242C69.075 72.3242 69.5421 71.7586 69.5421 71.0674C69.5421 70.3762 69.075 69.8107 68.5042 69.8107C67.9333 69.8107 67.4663 70.3762 67.4663 71.0674ZM77.371 70.9807C77.042 71.6242 77.2485 72.5051 77.8287 72.94C78.4089 73.3735 78.8832 72.847 78.8832 71.7699C78.8832 69.5619 78.2605 69.2376 77.371 70.9807ZM32.6965 73.5809C32.3437 74.2721 32.1994 74.8691 32.3758 74.9068C32.5523 74.9445 34.707 75.1242 37.1626 75.3064C42.0408 75.6671 43.9173 74.3161 40.2099 73.1121C36.6945 71.9723 33.4137 72.1759 32.6965 73.5809ZM71.6179 78.6079C71.6179 79.2991 72.0849 79.8646 72.6558 79.8646C73.2266 79.8646 73.6937 79.2991 73.6937 78.6079C73.6937 77.9167 73.2266 77.3511 72.6558 77.3511C72.0849 77.3511 71.6179 77.9167 71.6179 78.6079ZM18.3942 87.5458C19.92 89.4045 29.2154 89.8431 28.7234 88.0334C28.5356 87.3422 25.8495 86.6032 22.7545 86.3908C18.3133 86.0854 17.3947 86.3293 18.3942 87.5458ZM47.1545 90.0618C46.5754 91.1953 48.9677 92.2032 50.6004 91.5133C51.3144 91.2129 51.8977 90.4828 51.8977 89.8921C51.8977 88.6479 47.8011 88.795 47.1545 90.0618ZM67.4663 89.9185C67.4663 90.6097 68.3724 91.1752 69.4808 91.1752C70.5893 91.1752 71.784 90.6097 72.1368 89.9185C72.5011 89.2059 71.6283 88.6618 70.1223 88.6618C68.6619 88.6618 67.4663 89.2273 67.4663 89.9185Z" fill="black"/>
</svg>
