<svg width="95" height="92" viewBox="0 0 95 92" fill="none" xmlns="http://www.w3.org/2000/svg">
<path fill-rule="evenodd" clip-rule="evenodd" d="M56.9088 4.13199C53.4966 7.76919 52.6746 8.16565 50.0958 7.41561C45.3149 6.02538 42.8558 7.55683 38.8702 14.4086C38.7773 14.5687 37.4158 14.2036 35.8438 13.5979C31.92 12.0842 25.6434 15.3699 20.88 21.4278C18.8057 24.067 16.3703 26.0472 15.1553 26.0838C12.4321 26.1665 10.5651 28.087 10.5651 30.8089C10.5651 32.1793 9.4728 33.4503 7.55423 34.3112C4.04821 35.8845 1.95533 40.7466 3.2715 44.2593C3.91412 45.9728 3.62633 47.2563 2.19979 49.043C-0.402652 52.3026 -0.261339 56.0611 2.57112 58.9242C3.8481 60.2151 4.75684 62.211 4.59077 63.3606C4.41852 64.5604 5.44381 66.5511 6.99517 68.0292C9.27269 70.1988 10.7157 70.6057 16.1362 70.6057H22.5716L21.8249 74.745C20.7418 80.7547 21.8022 85.4338 25.0462 88.9559C28.8905 93.1287 32.5111 93.0168 36.8784 88.5877C40.4669 84.9484 43.0436 77.7493 42.2555 73.5671C41.8367 71.3484 42.1606 71.1287 45.8461 71.1287C50.2681 71.1287 53.0696 69.9676 56.8892 66.5522C59.2843 64.4109 59.3462 64.4056 58.5716 66.4214C58.1301 67.5721 57.5359 71.8348 57.2523 75.8946C56.7799 82.6617 56.9521 83.5299 59.3287 86.3313C61.4298 88.8094 62.7429 89.3879 66.2654 89.3879C69.7384 89.3879 71.1062 88.8032 73.0794 86.4767C75.229 83.9421 75.5488 82.5058 75.5488 75.3831C75.5488 66.4047 76.8186 64.074 81.3788 64.6797C84.8518 65.1421 90.5074 61.2632 92.4662 57.0768C97.4328 46.4624 94.6963 35.5623 87.0653 35.5623C85.4242 35.5623 85.055 34.8792 85.1365 31.9931C85.1911 30.0306 84.5856 27.6299 83.7914 26.6592C82.9961 25.6874 82.4546 23.1747 82.5887 21.0742C82.8569 16.8449 79.6221 10.4565 77.2126 10.4565C76.408 10.4565 75.2682 9.05481 74.6793 7.3403C73.4126 3.65394 67.9973 0.00523668 63.7847 6.3142e-06C61.634 -0.0031319 59.6938 1.16324 56.9088 4.13199ZM71.4486 6.86329C72.0015 8.33929 72.4543 10.9137 72.4543 12.5843C72.4543 14.78 72.8607 15.463 73.9211 15.0509C74.7277 14.7371 76.3967 15.0279 77.6314 15.6974C79.4633 16.6911 79.7923 17.618 79.4262 20.7468C79.1786 22.8546 78.6206 25.4028 78.1842 26.4091C77.5777 27.8088 77.8748 28.2398 79.4437 28.2398C82.2112 28.2398 83.0817 32.0956 81.1848 35.9525C79.259 39.8658 79.2281 39.7466 82.1864 39.7466C86.0091 39.7466 89.7369 41.4977 90.9974 43.8848C92.5951 46.9143 90.6394 53.6217 86.9292 57.8321C84.1019 61.0404 83.8162 61.1314 80.5329 59.8594C77.423 58.6554 76.9609 58.7296 75.6808 60.644C73.6354 63.7027 69.7632 63.3376 67.6332 59.8835C66.6563 58.3018 65.729 56.8216 65.5712 56.5956C65.4134 56.3707 64.5758 56.7808 63.7115 57.5089C62.3819 58.6282 62.1395 58.4681 62.1395 56.4733C62.1395 54.1374 58.3405 46.8682 56.7696 46.1977C56.3209 46.0063 56.2342 44.0689 56.5777 41.891C57.2698 37.4986 55.8763 33.9262 53.115 33.0172C52.1217 32.6898 50.5311 30.5401 49.5801 28.2387C48.3836 25.3422 47.219 24.0555 45.7945 24.0555C42.7506 24.0555 41.8677 18.7352 44.236 14.6691C46.6104 10.5925 49.3191 9.73162 52.0299 12.193C54.0918 14.0655 54.1816 14.0613 55.3079 12.0664C58.2693 6.8204 61.9198 4.18011 66.2118 4.18011C69.8045 4.18011 70.5946 4.58494 71.4486 6.86329ZM39.4983 19.9685C40.1337 21.1725 40.3555 23.364 39.9904 24.8379C39.2209 27.9458 40.6505 29.2461 44.8621 29.2702C47.3088 29.2838 47.6987 29.7085 47.6987 32.355C47.6987 34.9221 48.1608 35.4775 50.526 35.7548C54.3971 36.2077 54.6612 38.9808 51.3212 44.0993C48.4063 48.567 48.5032 49.361 52.0278 49.906C55.6411 50.4657 56.982 52.3088 56.982 56.7149C56.982 60.0194 56.3229 61.4986 53.7782 63.9098C49.2057 68.2416 45.5212 68.319 41.6521 64.1671L39.2147 61.5519L36.374 65.0029C33.3837 68.6349 32.2862 68.5972 26.9204 64.6734C25.5681 63.6849 24.875 63.7895 23.4948 65.1891C22.3096 66.3911 20.0383 66.9444 16.2909 66.9444C9.87714 66.9444 7.99881 65.3743 8.98181 60.8333C9.57389 58.0999 9.30054 57.6522 6.4196 56.6333C3.89968 55.7431 3.26738 54.9742 3.52731 53.1227C3.72329 51.7314 4.71249 50.5975 5.92345 50.3778C9.32014 49.7627 10.0515 48.338 8.09576 46.1454C6.93947 44.8504 6.41238 42.8733 6.62487 40.6295C6.91678 37.531 7.33762 37.0937 10.3073 36.804C13.4017 36.5006 13.6596 36.1889 13.6596 32.7504C13.6596 29.2262 13.8164 29.0557 16.5529 29.6112C19.0336 30.1143 19.6061 29.767 20.5726 27.1717C21.2328 25.3976 23.7444 22.8305 26.6491 20.9622C32.608 17.1305 37.7892 16.7298 39.4983 19.9685ZM53.5441 19.5229C52.1506 20.9361 52.917 24.8327 54.9572 26.7052C56.5385 28.1571 59.076 28.7178 65.2267 28.9762C72.5781 29.2848 73.5085 29.1059 74.5194 27.1885C76.1398 24.1193 74.7504 22.4707 72.378 24.6486C70.5863 26.293 70.2562 26.2983 67.8859 24.7239C65.5073 23.1433 65.2546 23.1517 64.2808 24.8474C63.3174 26.5242 63.2308 26.5284 63.2019 24.9018C63.1555 22.2385 61.208 21.547 59.1275 23.4561C57.5535 24.9007 57.0996 24.9363 56.0805 23.6915C55.4224 22.887 55.1728 21.4623 55.5276 20.5271C56.1661 18.8398 54.8654 18.1818 53.5441 19.5229ZM37.3642 36.646C36.4585 38.3626 35.5849 38.6953 33.3166 38.1911C31.2423 37.7287 30.2531 38.0007 29.8178 39.1524C29.4548 40.1096 28.545 40.4987 27.562 40.1158C26.4428 39.6807 25.7301 40.1891 25.3402 41.7027C24.4056 45.3253 21.5907 44.5271 22.1312 40.7926C22.6181 37.4316 22.0342 36.9023 20.0548 38.9097C18.0857 40.9067 18.6159 44.7154 21.11 46.4864C24.4758 48.8777 25.9271 48.5273 29.7766 44.3869C31.6828 42.3377 33.7313 40.9652 34.3275 41.3397C35.7685 42.2435 40.4783 39.0499 40.4783 37.169C40.4783 34.6564 38.5813 34.3384 37.3642 36.646ZM64.3035 42.6934C62.8625 45.4236 65.7301 49.5472 68.5481 48.7993C69.7632 48.4781 72.5802 49.5001 75.5044 51.3245C78.2069 53.0118 81.1694 54.3916 82.0864 54.3916C84.1627 54.3916 87.184 49.8809 86.7229 47.4687C86.1937 44.7029 84.0008 44.5616 83.6222 47.2699C83.1643 50.5504 79.2869 50.5985 78.8289 47.3306C78.4844 44.8681 77.1528 44.2384 76.0645 46.023C75.1156 47.5796 73.4858 47.2877 73.4858 45.5617C73.4858 43.4559 71.4713 42.4172 70.0953 43.8127C68.512 45.4184 67.2969 45.2698 67.2969 43.4695C67.2969 41.0468 65.4278 40.5625 64.3035 42.6934ZM32.7885 50.0598C31.5229 54.1039 33.1444 55.5831 38.0264 54.8403C41.061 54.379 42.5412 54.5359 42.5412 55.3184C42.5412 57.2045 46.5001 60.668 48.6569 60.668C50.7096 60.668 53.8876 58.0989 53.8876 56.4398C53.8876 55.923 52.1794 55.604 50.0917 55.7305C46.8188 55.9293 46.204 55.5998 45.6336 53.3455C45.1519 51.4417 44.3608 50.7983 42.7248 50.9793C41.4891 51.1163 40.4783 50.7084 40.4783 50.0734C40.4783 49.4039 39.3911 49.1277 37.8995 49.4175C36.4812 49.6926 35.3208 49.5117 35.3208 49.0158C35.3208 47.3201 33.3981 48.1131 32.7885 50.0598ZM68.0437 65.4004C71.724 67.6882 72.9886 71.3087 71.9603 76.6206C70.4285 84.5362 67.9674 86.3428 63.2638 83.0017C60.9729 81.375 60.8656 80.8112 61.3844 73.132C61.9229 65.1672 62.6727 62.303 64.0395 62.9913C64.4129 63.1796 66.2149 64.2644 68.0437 65.4004ZM34.0882 70.9342C36.7928 70.6151 36.8763 70.7689 37.1775 76.6164C37.4467 81.8635 37.1579 82.9588 34.9031 85.2465C29.5362 90.6892 26.0374 87.6337 26.0374 77.5045C26.0374 69.5942 26.4676 68.637 29.3238 70.1873C30.4151 70.7794 32.5585 71.1151 34.0882 70.9342Z" fill="black"/>
</svg>
