<svg width="158" height="42" viewBox="0 0 158 42" fill="none" xmlns="http://www.w3.org/2000/svg">
<path d="M20.0399 13.4842C18.5535 13.4842 17.1006 13.925 15.8648 14.7507C14.629 15.5765 13.6657 16.7501 13.097 18.1233C12.5282 19.4965 12.3793 21.0075 12.6693 22.4653C12.9593 23.923 13.675 25.262 14.726 26.313C15.777 27.364 17.116 28.0797 18.5738 28.3697C20.0315 28.6597 21.5425 28.5109 22.9157 27.9421C24.2889 27.3733 25.4626 26.4101 26.2883 25.1742C27.1141 23.9384 27.5548 22.4855 27.5548 20.9992C27.5548 19.0061 26.7631 17.0946 25.3537 15.6853C23.9444 14.276 22.033 13.4842 20.0399 13.4842ZM20.0399 26.0091C19.049 26.0091 18.0804 25.7153 17.2565 25.1648C16.4326 24.6143 15.7905 23.8318 15.4113 22.9164C15.0321 22.0009 14.9329 20.9936 15.1262 20.0218C15.3195 19.0499 15.7966 18.1572 16.4973 17.4566C17.1979 16.7559 18.0906 16.2788 19.0625 16.0855C20.0343 15.8921 21.0416 15.9914 21.9571 16.3706C22.8725 16.7497 23.655 17.3919 24.2055 18.2158C24.756 19.0397 25.0498 20.0083 25.0498 20.9992C25.0457 22.3266 24.5165 23.5985 23.5779 24.5372C22.6392 25.4758 21.3673 26.005 20.0399 26.0091ZM26.9286 5.34302H13.1512C10.8259 5.34302 8.59586 6.26673 6.95164 7.91094C5.30743 9.55515 4.38372 11.7852 4.38372 14.1105V27.8879C4.38372 30.2131 5.30743 32.4432 6.95164 34.0874C8.59586 35.7316 10.8259 36.6553 13.1512 36.6553H26.9286C29.2538 36.6553 31.4839 35.7316 33.1281 34.0874C34.7723 32.4432 35.696 30.2131 35.696 27.8879V14.1105C35.696 11.7852 34.7723 9.55515 33.1281 7.91094C31.4839 6.26673 29.2538 5.34302 26.9286 5.34302ZM33.191 27.8879C33.191 28.7103 33.029 29.5246 32.7143 30.2844C32.3996 31.0442 31.9383 31.7346 31.3568 32.3161C30.7753 32.8976 30.0849 33.3589 29.3251 33.6736C28.5653 33.9883 27.751 34.1503 26.9286 34.1503H13.1512C12.3288 34.1503 11.5144 33.9883 10.7546 33.6736C9.99483 33.3589 9.30446 32.8976 8.72293 32.3161C8.14141 31.7346 7.68012 31.0442 7.3654 30.2844C7.05069 29.5246 6.8887 28.7103 6.8887 27.8879V14.1105C6.8887 12.4496 7.5485 10.8567 8.72293 9.68223C9.89737 8.50779 11.4903 7.848 13.1512 7.848H26.9286C27.751 7.848 28.5653 8.00998 29.3251 8.3247C30.0849 8.63942 30.7753 9.10071 31.3568 9.68223C31.9383 10.2638 32.3996 10.9541 32.7143 11.7139C33.029 12.4737 33.191 13.2881 33.191 14.1105V27.8879ZM30.0598 12.858C30.0598 13.2295 29.9496 13.5928 29.7432 13.9017C29.5367 14.2107 29.2433 14.4515 28.9 14.5937C28.5567 14.7359 28.179 14.7731 27.8145 14.7006C27.4501 14.6281 27.1153 14.4492 26.8526 14.1864C26.5898 13.9237 26.4109 13.5889 26.3384 13.2245C26.2659 12.8601 26.3031 12.4823 26.4453 12.139C26.5875 11.7957 26.8283 11.5023 27.1373 11.2959C27.4462 11.0894 27.8095 10.9792 28.1811 10.9792C28.6793 10.9792 29.1572 11.1772 29.5095 11.5295C29.8619 11.8818 30.0598 12.3597 30.0598 12.858Z" fill="white"/>
<path fill-rule="evenodd" clip-rule="evenodd" d="M61.6226 9.72661L62.8751 8.47412H95.4398L96.6923 9.72661V32.2715L95.4398 33.5239H62.8751L61.6226 32.2715V9.72661ZM64.1276 12.3193V31.019H94.1873V12.3218L79.934 23.2535H78.406L64.1276 12.3193ZM91.7575 10.9791H66.5574L79.1575 20.6709L91.7575 10.9791Z" fill="white"/>
<path fill-rule="evenodd" clip-rule="evenodd" d="M157.03 10.6461C157.335 9.70419 157.03 9.01949 155.677 9.01949H151.179C150.045 9.01949 149.521 9.61902 149.215 10.2603C149.215 10.2603 146.901 15.7379 143.67 19.2891C142.622 20.3161 142.142 20.6585 141.575 20.6585C141.269 20.6585 140.876 20.3161 140.876 19.3751V10.6018C140.876 9.4896 140.527 8.97607 139.566 8.97607H132.492C131.793 8.97607 131.357 9.4896 131.357 10.0031C131.357 11.0727 132.972 11.3299 133.147 14.3251V20.833C133.147 22.245 132.889 22.503 132.317 22.503C130.789 22.503 127.078 16.9828 124.852 10.6928C124.419 9.44701 123.979 8.97607 122.844 8.97607H118.303C116.993 8.97607 116.775 9.57477 116.775 10.2169C116.775 11.3725 118.303 17.1916 123.892 24.8936C127.603 30.1541 132.886 32.9814 137.645 32.9814C140.527 32.9814 140.876 32.3392 140.876 31.2696V27.29C140.876 26.0066 141.137 25.7929 142.055 25.7929C142.709 25.7929 143.888 26.1344 146.552 28.6594C149.607 31.6545 150.131 33.0239 151.834 33.0239H156.331C157.641 33.0239 158.253 32.3818 157.903 31.141C157.511 29.9002 156.026 28.1033 154.104 25.9641C153.057 24.7667 151.485 23.4399 151.005 22.7978C150.35 21.9419 150.525 21.5995 151.005 20.8297C150.961 20.8297 156.463 13.2128 157.03 10.6427" fill="white"/>
</svg>
