<svg width="341" height="23" viewBox="0 0 341 23" fill="none" xmlns="http://www.w3.org/2000/svg">
<path d="M7.953 17.33C6.37633 17.33 5.04533 16.9817 3.96 16.285C2.87467 15.581 2.05333 14.6093 1.496 13.37C0.938667 12.1307 0.66 10.7007 0.66 9.08C0.66 7.45933 0.938667 6.02933 1.496 4.79C2.05333 3.55067 2.87467 2.58267 3.96 1.886C5.04533 1.182 6.37633 0.83 7.953 0.83C9.537 0.83 10.868 1.182 11.946 1.886C13.0313 2.58267 13.8527 3.55067 14.41 4.79C14.9747 6.02933 15.257 7.45933 15.257 9.08C15.257 10.7007 14.9747 12.1307 14.41 13.37C13.8527 14.6093 13.0313 15.581 11.946 16.285C10.868 16.9817 9.537 17.33 7.953 17.33ZM7.953 15.779C9.19233 15.779 10.2263 15.4967 11.055 14.932C11.8837 14.3673 12.5033 13.5827 12.914 12.578C13.332 11.566 13.541 10.4 13.541 9.08C13.541 7.76 13.332 6.59767 12.914 5.593C12.5033 4.58833 11.8837 3.80367 11.055 3.239C10.2263 2.67433 9.19233 2.38833 7.953 2.381C6.71367 2.381 5.68333 2.66333 4.862 3.228C4.04067 3.79267 3.421 4.581 3.003 5.593C2.59233 6.59767 2.38333 7.76 2.376 9.08C2.36867 10.4 2.57033 11.5623 2.981 12.567C3.399 13.5643 4.02233 14.349 4.851 14.921C5.67967 15.4857 6.71367 15.7717 7.953 15.779ZM23.8729 17.33C22.2963 17.33 20.9653 16.9817 19.8799 16.285C18.7946 15.581 17.9733 14.6093 17.4159 13.37C16.8586 12.1307 16.5799 10.7007 16.5799 9.08C16.5799 7.45933 16.8586 6.02933 17.4159 4.79C17.9733 3.55067 18.7946 2.58267 19.8799 1.886C20.9653 1.182 22.2963 0.83 23.8729 0.83C25.4569 0.83 26.7879 1.182 27.8659 1.886C28.9513 2.58267 29.7726 3.55067 30.3299 4.79C30.8946 6.02933 31.1769 7.45933 31.1769 9.08C31.1769 10.7007 30.8946 12.1307 30.3299 13.37C29.7726 14.6093 28.9513 15.581 27.8659 16.285C26.7879 16.9817 25.4569 17.33 23.8729 17.33ZM23.8729 15.779C25.1123 15.779 26.1463 15.4967 26.9749 14.932C27.8036 14.3673 28.4233 13.5827 28.8339 12.578C29.2519 11.566 29.4609 10.4 29.4609 9.08C29.4609 7.76 29.2519 6.59767 28.8339 5.593C28.4233 4.58833 27.8036 3.80367 26.9749 3.239C26.1463 2.67433 25.1123 2.38833 23.8729 2.381C22.6336 2.381 21.6033 2.66333 20.7819 3.228C19.9606 3.79267 19.3409 4.581 18.9229 5.593C18.5123 6.59767 18.3033 7.76 18.2959 9.08C18.2886 10.4 18.4903 11.5623 18.9009 12.567C19.3189 13.5643 19.9423 14.349 20.7709 14.921C21.5996 15.4857 22.6336 15.7717 23.8729 15.779ZM39.7928 17.33C38.2162 17.33 36.8852 16.9817 35.7998 16.285C34.7145 15.581 33.8932 14.6093 33.3358 13.37C32.7785 12.1307 32.4998 10.7007 32.4998 9.08C32.4998 7.45933 32.7785 6.02933 33.3358 4.79C33.8932 3.55067 34.7145 2.58267 35.7998 1.886C36.8852 1.182 38.2162 0.83 39.7928 0.83C41.3768 0.83 42.7078 1.182 43.7858 1.886C44.8712 2.58267 45.6925 3.55067 46.2498 4.79C46.8145 6.02933 47.0968 7.45933 47.0968 9.08C47.0968 10.7007 46.8145 12.1307 46.2498 13.37C45.6925 14.6093 44.8712 15.581 43.7858 16.285C42.7078 16.9817 41.3768 17.33 39.7928 17.33ZM39.7928 15.779C41.0322 15.779 42.0662 15.4967 42.8948 14.932C43.7235 14.3673 44.3432 13.5827 44.7538 12.578C45.1718 11.566 45.3808 10.4 45.3808 9.08C45.3808 7.76 45.1718 6.59767 44.7538 5.593C44.3432 4.58833 43.7235 3.80367 42.8948 3.239C42.0662 2.67433 41.0322 2.38833 39.7928 2.381C38.5535 2.381 37.5232 2.66333 36.7018 3.228C35.8805 3.79267 35.2608 4.581 34.8428 5.593C34.4322 6.59767 34.2232 7.76 34.2158 9.08C34.2085 10.4 34.4102 11.5623 34.8208 12.567C35.2388 13.5643 35.8622 14.349 36.6908 14.921C37.5195 15.4857 38.5535 15.7717 39.7928 15.779ZM53.7041 17V1.16H65.8371V17H64.2201V2.711H55.3211V17H53.7041ZM73.876 17.33C72.6953 17.33 71.687 17.0623 70.851 16.527C70.015 15.9917 69.3733 15.251 68.926 14.305C68.4787 13.359 68.255 12.2737 68.255 11.049C68.255 9.80233 68.4823 8.70967 68.937 7.771C69.3917 6.83233 70.037 6.10267 70.873 5.582C71.7163 5.054 72.7173 4.79 73.876 4.79C75.064 4.79 76.076 5.05767 76.912 5.593C77.7553 6.121 78.397 6.858 78.837 7.804C79.2843 8.74267 79.508 9.82433 79.508 11.049C79.508 12.2957 79.2843 13.392 78.837 14.338C78.3897 15.2767 77.7443 16.01 76.901 16.538C76.0577 17.066 75.0493 17.33 73.876 17.33ZM73.876 15.779C75.196 15.779 76.1787 15.3427 76.824 14.47C77.4693 13.59 77.792 12.4497 77.792 11.049C77.792 9.61167 77.4657 8.46767 76.813 7.617C76.1677 6.76633 75.1887 6.341 73.876 6.341C72.9887 6.341 72.2553 6.54267 71.676 6.946C71.104 7.342 70.675 7.89567 70.389 8.607C70.1103 9.311 69.971 10.125 69.971 11.049C69.971 12.479 70.301 13.6267 70.961 14.492C71.621 15.35 72.5927 15.779 73.876 15.779ZM87.2695 17.33C86.1769 17.33 85.2529 17.055 84.4975 16.505C83.7422 15.9477 83.1702 15.196 82.7815 14.25C82.3929 13.2967 82.1985 12.2297 82.1985 11.049C82.1985 9.84633 82.3929 8.77567 82.7815 7.837C83.1775 6.891 83.7569 6.14667 84.5195 5.604C85.2822 5.06133 86.2209 4.79 87.3355 4.79C88.4209 4.79 89.3522 5.065 90.1295 5.615C90.9069 6.165 91.5009 6.913 91.9115 7.859C92.3295 8.805 92.5385 9.86833 92.5385 11.049C92.5385 12.237 92.3295 13.304 91.9115 14.25C91.4935 15.196 90.8922 15.9477 90.1075 16.505C89.3229 17.055 88.3769 17.33 87.2695 17.33ZM81.9235 22.28V5.12H83.3755V14.063H83.5515V22.28H81.9235ZM87.1045 15.823C87.9332 15.823 88.6225 15.614 89.1725 15.196C89.7225 14.778 90.1332 14.2097 90.4045 13.491C90.6832 12.765 90.8225 11.951 90.8225 11.049C90.8225 10.1543 90.6869 9.34767 90.4155 8.629C90.1442 7.91033 89.7299 7.342 89.1725 6.924C88.6225 6.506 87.9222 6.297 87.0715 6.297C86.2429 6.297 85.5535 6.49867 85.0035 6.902C84.4609 7.30533 84.0539 7.86633 83.7825 8.585C83.5112 9.29633 83.3755 10.1177 83.3755 11.049C83.3755 11.9657 83.5112 12.787 83.7825 13.513C84.0539 14.2317 84.4645 14.7963 85.0145 15.207C85.5645 15.6177 86.2612 15.823 87.1045 15.823ZM98.3531 17.33C97.4584 17.33 96.7067 17.1687 96.0981 16.846C95.4967 16.5233 95.0457 16.0943 94.7451 15.559C94.4444 15.0237 94.2941 14.4407 94.2941 13.81C94.2941 13.1647 94.4224 12.6147 94.6791 12.16C94.9431 11.698 95.2987 11.3203 95.7461 11.027C96.2007 10.7337 96.7251 10.51 97.3191 10.356C97.9204 10.2093 98.5841 10.081 99.3101 9.971C100.043 9.85367 100.758 9.75467 101.455 9.674C102.159 9.586 102.775 9.50167 103.303 9.421L102.731 9.773C102.753 8.59967 102.526 7.73067 102.049 7.166C101.572 6.60133 100.744 6.319 99.5631 6.319C98.7491 6.319 98.0597 6.50233 97.4951 6.869C96.9377 7.23567 96.5454 7.815 96.3181 8.607L94.7451 8.145C95.0164 7.08167 95.5627 6.25667 96.3841 5.67C97.2054 5.08333 98.2724 4.79 99.5851 4.79C100.67 4.79 101.591 4.99533 102.346 5.406C103.109 5.80933 103.648 6.396 103.963 7.166C104.11 7.51067 104.205 7.89567 104.249 8.321C104.293 8.74633 104.315 9.179 104.315 9.619V17H102.874V14.019L103.292 14.195C102.889 15.2143 102.262 15.9917 101.411 16.527C100.56 17.0623 99.5411 17.33 98.3531 17.33ZM98.5401 15.933C99.2954 15.933 99.9554 15.7973 100.52 15.526C101.085 15.2547 101.539 14.8843 101.884 14.415C102.229 13.9383 102.452 13.403 102.555 12.809C102.643 12.4277 102.691 12.0097 102.698 11.555C102.705 11.093 102.709 10.7483 102.709 10.521L103.325 10.84C102.775 10.9133 102.177 10.9867 101.532 11.06C100.894 11.1333 100.263 11.2177 99.6401 11.313C99.0241 11.4083 98.4667 11.522 97.9681 11.654C97.6307 11.7493 97.3044 11.885 96.9891 12.061C96.6737 12.2297 96.4134 12.457 96.2081 12.743C96.0101 13.029 95.9111 13.3847 95.9111 13.81C95.9111 14.1547 95.9954 14.4883 96.1641 14.811C96.3401 15.1337 96.6187 15.4013 97.0001 15.614C97.3887 15.8267 97.9021 15.933 98.5401 15.933ZM111.572 17V5.12H116.467C116.716 5.12 117.017 5.13467 117.369 5.164C117.728 5.19333 118.062 5.24833 118.37 5.329C119.037 5.505 119.573 5.86433 119.976 6.407C120.387 6.94967 120.592 7.60233 120.592 8.365C120.592 8.79033 120.526 9.17167 120.394 9.509C120.269 9.839 120.09 10.125 119.855 10.367C119.745 10.4917 119.624 10.6017 119.492 10.697C119.36 10.785 119.232 10.8583 119.107 10.917C119.342 10.961 119.595 11.0637 119.866 11.225C120.291 11.4743 120.614 11.8117 120.834 12.237C121.054 12.655 121.164 13.1647 121.164 13.766C121.164 14.58 120.97 15.2437 120.581 15.757C120.192 16.2703 119.672 16.6223 119.019 16.813C118.726 16.8937 118.407 16.945 118.062 16.967C117.725 16.989 117.406 17 117.105 17H111.572ZM113.2 15.625H117.028C117.182 15.625 117.376 15.614 117.611 15.592C117.846 15.5627 118.055 15.526 118.238 15.482C118.671 15.372 118.986 15.152 119.184 14.822C119.389 14.4847 119.492 14.118 119.492 13.722C119.492 13.2013 119.338 12.776 119.03 12.446C118.729 12.1087 118.326 11.9033 117.82 11.83C117.651 11.7933 117.475 11.7713 117.292 11.764C117.109 11.7567 116.944 11.753 116.797 11.753H113.2V15.625ZM113.2 10.367H116.522C116.713 10.367 116.925 10.356 117.16 10.334C117.402 10.3047 117.611 10.257 117.787 10.191C118.168 10.059 118.447 9.83167 118.623 9.509C118.806 9.18633 118.898 8.83433 118.898 8.453C118.898 8.035 118.799 7.66833 118.601 7.353C118.41 7.03767 118.121 6.81767 117.732 6.693C117.468 6.59767 117.182 6.54267 116.874 6.528C116.573 6.51333 116.383 6.506 116.302 6.506H113.2V10.367ZM127.75 17V5.12H137.199V17H135.582V6.671H129.367V17H127.75ZM141.98 22.28L144.279 16.043L144.312 17.891L139.109 5.12H140.825L145.093 15.801H144.389L148.327 5.12H149.977L143.597 22.28H141.98ZM155.111 17V6.616H150.898V5.12H160.941V6.616H156.728V17H155.111ZM168.065 17.33C166.906 17.33 165.902 17.0733 165.051 16.56C164.208 16.0467 163.551 15.3243 163.082 14.393C162.613 13.4617 162.378 12.369 162.378 11.115C162.378 9.817 162.609 8.695 163.071 7.749C163.533 6.803 164.182 6.07333 165.018 5.56C165.861 5.04667 166.855 4.79 167.999 4.79C169.172 4.79 170.173 5.06133 171.002 5.604C171.831 6.13933 172.458 6.90933 172.883 7.914C173.308 8.91867 173.503 10.1177 173.466 11.511H171.816V10.939C171.787 9.399 171.453 8.23667 170.815 7.452C170.184 6.66733 169.26 6.275 168.043 6.275C166.767 6.275 165.788 6.68933 165.106 7.518C164.431 8.34667 164.094 9.52733 164.094 11.06C164.094 12.556 164.431 13.7183 165.106 14.547C165.788 15.3683 166.752 15.779 167.999 15.779C168.85 15.779 169.59 15.5847 170.221 15.196C170.859 14.8 171.361 14.2317 171.728 13.491L173.235 14.074C172.766 15.108 172.073 15.911 171.156 16.483C170.247 17.0477 169.216 17.33 168.065 17.33ZM163.522 11.511V10.158H172.597V11.511H163.522ZM175.896 17V5.12H177.469V15.504H181.924V5.12H183.497V15.504H187.941V5.12H189.514V17H175.896ZM197.628 17.33C196.469 17.33 195.464 17.0733 194.614 16.56C193.77 16.0467 193.114 15.3243 192.645 14.393C192.175 13.4617 191.941 12.369 191.941 11.115C191.941 9.817 192.172 8.695 192.634 7.749C193.096 6.803 193.745 6.07333 194.581 5.56C195.424 5.04667 196.418 4.79 197.562 4.79C198.735 4.79 199.736 5.06133 200.565 5.604C201.393 6.13933 202.02 6.90933 202.446 7.914C202.871 8.91867 203.065 10.1177 203.029 11.511H201.379V10.939C201.349 9.399 201.016 8.23667 200.378 7.452C199.747 6.66733 198.823 6.275 197.606 6.275C196.33 6.275 195.351 6.68933 194.669 7.518C193.994 8.34667 193.657 9.52733 193.657 11.06C193.657 12.556 193.994 13.7183 194.669 14.547C195.351 15.3683 196.315 15.779 197.562 15.779C198.412 15.779 199.153 15.5847 199.784 15.196C200.422 14.8 200.924 14.2317 201.291 13.491L202.798 14.074C202.328 15.108 201.635 15.911 200.719 16.483C199.809 17.0477 198.779 17.33 197.628 17.33ZM193.085 11.511V10.158H202.16V11.511H193.085ZM210.398 17.33C209.202 17.33 208.19 17.0623 207.362 16.527C206.533 15.9917 205.902 15.2547 205.47 14.316C205.044 13.37 204.824 12.2847 204.81 11.06C204.824 9.81333 205.052 8.72067 205.492 7.782C205.932 6.836 206.566 6.10267 207.395 5.582C208.223 5.054 209.228 4.79 210.409 4.79C211.611 4.79 212.656 5.08333 213.544 5.67C214.438 6.25667 215.051 7.05967 215.381 8.079L213.797 8.585C213.518 7.87367 213.074 7.32367 212.466 6.935C211.864 6.539 211.175 6.341 210.398 6.341C209.525 6.341 208.803 6.54267 208.231 6.946C207.659 7.342 207.233 7.89567 206.955 8.607C206.676 9.31833 206.533 10.136 206.526 11.06C206.54 12.4827 206.87 13.6267 207.516 14.492C208.161 15.35 209.122 15.779 210.398 15.779C211.204 15.779 211.89 15.5957 212.455 15.229C213.027 14.855 213.459 14.3123 213.753 13.601L215.381 14.085C214.941 15.141 214.295 15.9477 213.445 16.505C212.594 17.055 211.578 17.33 210.398 17.33ZM220.595 17V6.616H216.382V5.12H226.425V6.616H222.212V17H220.595ZM228.511 17V5.12H233.406C233.656 5.12 233.956 5.13467 234.308 5.164C234.668 5.19333 235.001 5.24833 235.309 5.329C235.977 5.505 236.512 5.86433 236.915 6.407C237.326 6.94967 237.531 7.60233 237.531 8.365C237.531 8.79033 237.465 9.17167 237.333 9.509C237.209 9.839 237.029 10.125 236.794 10.367C236.684 10.4917 236.563 10.6017 236.431 10.697C236.299 10.785 236.171 10.8583 236.046 10.917C236.281 10.961 236.534 11.0637 236.805 11.225C237.231 11.4743 237.553 11.8117 237.773 12.237C237.993 12.655 238.103 13.1647 238.103 13.766C238.103 14.58 237.909 15.2437 237.52 15.757C237.132 16.2703 236.611 16.6223 235.958 16.813C235.665 16.8937 235.346 16.945 235.001 16.967C234.664 16.989 234.345 17 234.044 17H228.511ZM230.139 15.625H233.967C234.121 15.625 234.316 15.614 234.55 15.592C234.785 15.5627 234.994 15.526 235.177 15.482C235.61 15.372 235.925 15.152 236.123 14.822C236.329 14.4847 236.431 14.118 236.431 13.722C236.431 13.2013 236.277 12.776 235.969 12.446C235.669 12.1087 235.265 11.9033 234.759 11.83C234.591 11.7933 234.415 11.7713 234.231 11.764C234.048 11.7567 233.883 11.753 233.736 11.753H230.139V15.625ZM230.139 10.367H233.461C233.652 10.367 233.865 10.356 234.099 10.334C234.341 10.3047 234.55 10.257 234.726 10.191C235.108 10.059 235.386 9.83167 235.562 9.509C235.746 9.18633 235.837 8.83433 235.837 8.453C235.837 8.035 235.738 7.66833 235.54 7.353C235.35 7.03767 235.06 6.81767 234.671 6.693C234.407 6.59767 234.121 6.54267 233.813 6.528C233.513 6.51333 233.322 6.506 233.241 6.506H230.139V10.367ZM249.734 5.12V17H248.161V7.749L241.649 17H240.285V5.12H241.858V14.294L248.381 5.12H249.734ZM257.848 17.33C256.69 17.33 255.685 17.0733 254.834 16.56C253.991 16.0467 253.335 15.3243 252.865 14.393C252.396 13.4617 252.161 12.369 252.161 11.115C252.161 9.817 252.392 8.695 252.854 7.749C253.316 6.803 253.965 6.07333 254.801 5.56C255.645 5.04667 256.638 4.79 257.782 4.79C258.956 4.79 259.957 5.06133 260.785 5.604C261.614 6.13933 262.241 6.90933 262.666 7.914C263.092 8.91867 263.286 10.1177 263.249 11.511H261.599V10.939C261.57 9.399 261.236 8.23667 260.598 7.452C259.968 6.66733 259.044 6.275 257.826 6.275C256.55 6.275 255.571 6.68933 254.889 7.518C254.215 8.34667 253.877 9.52733 253.877 11.06C253.877 12.556 254.215 13.7183 254.889 14.547C255.571 15.3683 256.536 15.779 257.782 15.779C258.633 15.779 259.374 15.5847 260.004 15.196C260.642 14.8 261.145 14.2317 261.511 13.491L263.018 14.074C262.549 15.108 261.856 15.911 260.939 16.483C260.03 17.0477 259 17.33 257.848 17.33ZM253.305 11.511V10.158H262.38V11.511H253.305ZM277.388 17.583C276.266 17.583 275.21 17.374 274.22 16.956C273.23 16.5307 272.361 15.944 271.613 15.196C270.865 14.448 270.278 13.579 269.853 12.589C269.427 11.599 269.215 10.5393 269.215 9.41C269.215 8.28067 269.427 7.221 269.853 6.231C270.278 5.241 270.865 4.372 271.613 3.624C272.361 2.876 273.23 2.293 274.22 1.875C275.21 1.44967 276.266 1.237 277.388 1.237C278.524 1.237 279.584 1.44967 280.567 1.875C281.557 2.293 282.426 2.876 283.174 3.624C283.922 4.372 284.508 5.241 284.934 6.231C285.359 7.221 285.572 8.28067 285.572 9.41C285.572 10.5393 285.359 11.599 284.934 12.589C284.508 13.579 283.922 14.448 283.174 15.196C282.426 15.944 281.557 16.5307 280.567 16.956C279.584 17.374 278.524 17.583 277.388 17.583ZM277.487 14.041C276.819 14.041 276.222 13.9273 275.694 13.7C275.166 13.4727 274.704 13.1097 274.308 12.611C273.926 12.127 273.662 11.6063 273.516 11.049C273.376 10.4917 273.307 9.93433 273.307 9.377C273.314 8.805 273.391 8.244 273.538 7.694C273.692 7.144 273.948 6.64167 274.308 6.187C274.704 5.69567 275.169 5.33267 275.705 5.098C276.24 4.86333 276.856 4.746 277.553 4.746C277.949 4.746 278.323 4.79 278.675 4.878C279.027 4.95867 279.375 5.10167 279.72 5.307C280.072 5.527 280.383 5.802 280.655 6.132C280.926 6.462 281.12 6.84333 281.238 7.276L279.885 7.683C279.797 7.45567 279.672 7.23567 279.511 7.023C279.349 6.81033 279.162 6.627 278.95 6.473C278.744 6.32633 278.513 6.22 278.257 6.154C278.007 6.08067 277.754 6.044 277.498 6.044C277.072 6.044 276.684 6.132 276.332 6.308C275.98 6.47667 275.679 6.715 275.43 7.023C275.18 7.34567 275.008 7.716 274.913 8.134C274.817 8.54467 274.77 8.95533 274.77 9.366C274.77 9.81333 274.821 10.246 274.924 10.664C275.034 11.082 275.202 11.445 275.43 11.753C275.664 12.0757 275.958 12.3213 276.31 12.49C276.669 12.6587 277.065 12.743 277.498 12.743C278.07 12.743 278.561 12.6037 278.972 12.325C279.184 12.171 279.36 11.9987 279.5 11.808C279.639 11.6173 279.756 11.4047 279.852 11.17L281.238 11.544C281.076 11.962 280.871 12.325 280.622 12.633C280.372 12.941 280.112 13.1903 279.841 13.381C279.511 13.601 279.155 13.766 278.774 13.876C278.4 13.986 277.971 14.041 277.487 14.041ZM277.388 16.01C278.304 16.01 279.159 15.8413 279.951 15.504C280.743 15.1593 281.439 14.6863 282.041 14.085C282.649 13.4763 283.122 12.7723 283.46 11.973C283.804 11.1663 283.977 10.3083 283.977 9.399C283.977 8.48233 283.804 7.628 283.46 6.836C283.122 6.044 282.649 5.34733 282.041 4.746C281.439 4.13733 280.743 3.66433 279.951 3.327C279.159 2.98233 278.304 2.81 277.388 2.81C276.478 2.81 275.62 2.98233 274.814 3.327C274.014 3.66433 273.31 4.13733 272.702 4.746C272.1 5.34733 271.627 6.044 271.283 6.836C270.945 7.628 270.777 8.48233 270.777 9.399C270.777 10.3083 270.945 11.1663 271.283 11.973C271.627 12.7723 272.1 13.4763 272.702 14.085C273.31 14.6863 274.014 15.1593 274.814 15.504C275.62 15.8413 276.478 16.01 277.388 16.01ZM291.741 16.989L291.752 15.515L298.913 9.047C299.529 8.48967 299.936 7.96167 300.134 7.463C300.339 6.957 300.442 6.429 300.442 5.879C300.442 5.22633 300.288 4.636 299.98 4.108C299.672 3.58 299.257 3.162 298.737 2.854C298.216 2.53867 297.633 2.381 296.988 2.381C296.313 2.381 295.712 2.54233 295.184 2.865C294.656 3.18767 294.238 3.613 293.93 4.141C293.629 4.669 293.482 5.24467 293.49 5.868H291.84C291.84 4.90733 292.067 4.04567 292.522 3.283C292.976 2.52033 293.592 1.92267 294.37 1.49C295.147 1.05 296.027 0.83 297.01 0.83C297.97 0.83 298.832 1.05733 299.595 1.512C300.365 1.95933 300.97 2.568 301.41 3.338C301.857 4.10067 302.081 4.95133 302.081 5.89C302.081 6.55 302 7.133 301.839 7.639C301.685 8.13767 301.439 8.60333 301.102 9.036C300.772 9.46133 300.35 9.90133 299.837 10.356L293.479 16.098L293.226 15.438H302.081V16.989H291.741ZM309.898 17.33C308.922 17.33 308.042 17.1027 307.258 16.648C306.48 16.1933 305.864 15.5773 305.41 14.8C304.955 14.0153 304.728 13.1353 304.728 12.16V6C304.728 5.02467 304.955 4.14833 305.41 3.371C305.864 2.58633 306.48 1.96667 307.258 1.512C308.042 1.05733 308.922 0.83 309.898 0.83C310.873 0.83 311.749 1.05733 312.527 1.512C313.311 1.96667 313.931 2.58633 314.386 3.371C314.84 4.14833 315.068 5.02467 315.068 6V12.16C315.068 13.1353 314.84 14.0153 314.386 14.8C313.931 15.5773 313.311 16.1933 312.527 16.648C311.749 17.1027 310.873 17.33 309.898 17.33ZM309.898 15.768C310.55 15.768 311.144 15.6103 311.68 15.295C312.215 14.9723 312.64 14.5433 312.956 14.008C313.271 13.4727 313.429 12.8823 313.429 12.237V5.923C313.429 5.27033 313.271 4.67633 312.956 4.141C312.64 3.60567 312.215 3.18033 311.68 2.865C311.144 2.54233 310.55 2.381 309.898 2.381C309.245 2.381 308.651 2.54233 308.116 2.865C307.58 3.18033 307.155 3.60567 306.84 4.141C306.524 4.67633 306.367 5.27033 306.367 5.923V12.237C306.367 12.8823 306.524 13.4727 306.84 14.008C307.155 14.5433 307.58 14.9723 308.116 15.295C308.651 15.6103 309.245 15.768 309.898 15.768ZM317.715 16.989L317.726 15.515L324.887 9.047C325.503 8.48967 325.91 7.96167 326.108 7.463C326.314 6.957 326.416 6.429 326.416 5.879C326.416 5.22633 326.262 4.636 325.954 4.108C325.646 3.58 325.232 3.162 324.711 2.854C324.191 2.53867 323.608 2.381 322.962 2.381C322.288 2.381 321.686 2.54233 321.158 2.865C320.63 3.18767 320.212 3.613 319.904 4.141C319.604 4.669 319.457 5.24467 319.464 5.868H317.814C317.814 4.90733 318.042 4.04567 318.496 3.283C318.951 2.52033 319.567 1.92267 320.344 1.49C321.122 1.05 322.002 0.83 322.984 0.83C323.945 0.83 324.807 1.05733 325.569 1.512C326.339 1.95933 326.944 2.568 327.384 3.338C327.832 4.10067 328.055 4.95133 328.055 5.89C328.055 6.55 327.975 7.133 327.813 7.639C327.659 8.13767 327.414 8.60333 327.076 9.036C326.746 9.46133 326.325 9.90133 325.811 10.356L319.453 16.098L319.2 15.438H328.055V16.989H317.715ZM337.246 17V13.931H329.832V12.391L335.134 1.16H336.949L331.647 12.391H337.246V7.771H338.874V12.391H340.601V13.931H338.874V17H337.246Z" fill="#ECEBE9"/>
</svg>
